<svg width="113" height="26" viewBox="0 0 113 26" fill="none" xmlns="http://www.w3.org/2000/svg">
<path d="M41.0239 9.27203H44.6659V10.598H43.9339L41.4259 18.332H39.6019L37.0999 10.598L38.2219 12.374H37.0939L38.1919 10.598L35.6179 18.332H33.8059L31.3039 10.598H30.5659V9.27203H34.3159V10.598H32.8699L35.2999 18.332L34.1059 16.598H35.3899L34.2499 18.332L36.8779 10.598H35.5879V9.27203H39.8059V10.598H38.5699L41.1619 18.332L39.9439 16.598H41.2459L40.1059 18.332L42.5599 10.598H41.0239V9.27203ZM49.9741 18.332C49.7341 18.332 49.5481 18.258 49.4161 18.11C49.2881 17.962 49.2241 17.752 49.2241 17.48V15.974L49.3441 15.734L49.2781 15.002L49.2241 14.582V14.09C49.2241 13.838 49.1721 13.63 49.0681 13.466C48.9641 13.298 48.8101 13.172 48.6061 13.088C48.4061 13.004 48.1621 12.962 47.8741 12.962C47.4581 12.962 47.1261 13.048 46.8781 13.22C46.6341 13.388 46.4781 13.646 46.4101 13.994L45.0361 13.748C45.1041 13.296 45.2561 12.916 45.4921 12.608C45.7281 12.3 46.0501 12.068 46.4581 11.912C46.8701 11.756 47.3741 11.678 47.9701 11.678C48.5661 11.678 49.0661 11.76 49.4701 11.924C49.8741 12.084 50.1781 12.332 50.3821 12.668C50.5861 13.004 50.6881 13.43 50.6881 13.946V17.102H51.5461V18.332H49.9741ZM46.9381 18.428C46.2541 18.428 45.7341 18.272 45.3781 17.96C45.0261 17.648 44.8501 17.198 44.8501 16.61C44.8501 16.062 45.0121 15.642 45.3361 15.35C45.6601 15.058 46.1841 14.842 46.9081 14.702L49.5721 14.174V15.032L47.2501 15.542C46.9501 15.606 46.7281 15.712 46.5841 15.86C46.4441 16.004 46.3741 16.196 46.3741 16.436C46.3741 16.704 46.4561 16.906 46.6201 17.042C46.7881 17.178 47.0281 17.246 47.3401 17.246C47.7201 17.246 48.0561 17.154 48.3481 16.97C48.6401 16.786 48.8681 16.526 49.0321 16.19C49.1961 15.854 49.2781 15.458 49.2781 15.002L49.5841 16.418H49.1761C49.0881 17.09 48.8541 17.594 48.4741 17.93C48.0941 18.262 47.5821 18.428 46.9381 18.428ZM55.3696 17.102H56.4916V18.332H52.7716V17.102H53.9056V10.082H52.7716V8.85203H55.3696V17.102ZM60.2441 17.102H61.3661V18.332H57.6461V17.102H58.7801V10.082H57.6461V8.85203H60.2441V17.102ZM62.5447 20.852V19.622H63.6367V13.046H62.5447V11.816H65.1007V14.048L65.0647 14.876V15.206L65.1007 15.992V19.622H66.1567V20.852H62.5447ZM67.2607 18.464C66.7687 18.464 66.3207 18.36 65.9167 18.152C65.5167 17.94 65.1727 17.626 64.8847 17.21C64.6007 16.794 64.3887 16.282 64.2487 15.674L65.0647 15.098C65.0647 15.506 65.1387 15.866 65.2867 16.178C65.4347 16.486 65.6487 16.73 65.9287 16.91C66.2127 17.086 66.5567 17.174 66.9607 17.174C67.3567 17.174 67.6947 17.086 67.9747 16.91C68.2587 16.73 68.4767 16.484 68.6287 16.172C68.7807 15.856 68.8567 15.49 68.8567 15.074C68.8567 14.658 68.7767 14.294 68.6167 13.982C68.4607 13.666 68.2407 13.42 67.9567 13.244C67.6727 13.068 67.3407 12.98 66.9607 12.98C66.5647 12.98 66.2247 13.068 65.9407 13.244C65.6607 13.42 65.4447 13.668 65.2927 13.988C65.1407 14.304 65.0647 14.674 65.0647 15.098L64.8787 13.604H65.1607C65.2367 13.208 65.3687 12.868 65.5567 12.584C65.7447 12.296 65.9887 12.074 66.2887 11.918C66.5887 11.762 66.9487 11.684 67.3687 11.684C67.8167 11.684 68.2227 11.77 68.5867 11.942C68.9547 12.11 69.2707 12.348 69.5347 12.656C69.7987 12.964 70.0027 13.324 70.1467 13.736C70.2907 14.148 70.3627 14.594 70.3627 15.074C70.3627 15.75 70.2347 16.344 69.9787 16.856C69.7267 17.364 69.3667 17.76 68.8987 18.044C68.4347 18.324 67.8887 18.464 67.2607 18.464ZM77.1832 18.332C76.9432 18.332 76.7572 18.258 76.6252 18.11C76.4972 17.962 76.4332 17.752 76.4332 17.48V15.974L76.5532 15.734L76.4872 15.002L76.4332 14.582V14.09C76.4332 13.838 76.3812 13.63 76.2772 13.466C76.1732 13.298 76.0192 13.172 75.8152 13.088C75.6152 13.004 75.3712 12.962 75.0832 12.962C74.6672 12.962 74.3352 13.048 74.0872 13.22C73.8432 13.388 73.6872 13.646 73.6192 13.994L72.2452 13.748C72.3132 13.296 72.4652 12.916 72.7012 12.608C72.9372 12.3 73.2592 12.068 73.6672 11.912C74.0792 11.756 74.5832 11.678 75.1792 11.678C75.7752 11.678 76.2752 11.76 76.6792 11.924C77.0832 12.084 77.3872 12.332 77.5912 12.668C77.7952 13.004 77.8972 13.43 77.8972 13.946V17.102H78.7552V18.332H77.1832ZM74.1472 18.428C73.4632 18.428 72.9432 18.272 72.5872 17.96C72.2352 17.648 72.0592 17.198 72.0592 16.61C72.0592 16.062 72.2212 15.642 72.5452 15.35C72.8692 15.058 73.3932 14.842 74.1172 14.702L76.7812 14.174V15.032L74.4592 15.542C74.1592 15.606 73.9372 15.712 73.7932 15.86C73.6532 16.004 73.5832 16.196 73.5832 16.436C73.5832 16.704 73.6652 16.906 73.8292 17.042C73.9972 17.178 74.2372 17.246 74.5492 17.246C74.9292 17.246 75.2652 17.154 75.5572 16.97C75.8492 16.786 76.0772 16.526 76.2412 16.19C76.4052 15.854 76.4872 15.458 76.4872 15.002L76.7932 16.418H76.3852C76.2972 17.09 76.0632 17.594 75.6832 17.93C75.3032 18.262 74.7912 18.428 74.1472 18.428ZM80.0047 20.852V19.622H81.0967V13.046H80.0047V11.816H82.5607V14.048L82.5247 14.876V15.206L82.5607 15.992V19.622H83.6167V20.852H80.0047ZM84.7207 18.464C84.2287 18.464 83.7807 18.36 83.3767 18.152C82.9767 17.94 82.6327 17.626 82.3447 17.21C82.0607 16.794 81.8487 16.282 81.7087 15.674L82.5247 15.098C82.5247 15.506 82.5987 15.866 82.7467 16.178C82.8947 16.486 83.1087 16.73 83.3887 16.91C83.6727 17.086 84.0167 17.174 84.4207 17.174C84.8167 17.174 85.1547 17.086 85.4347 16.91C85.7187 16.73 85.9367 16.484 86.0887 16.172C86.2407 15.856 86.3167 15.49 86.3167 15.074C86.3167 14.658 86.2367 14.294 86.0767 13.982C85.9207 13.666 85.7007 13.42 85.4167 13.244C85.1327 13.068 84.8007 12.98 84.4207 12.98C84.0247 12.98 83.6847 13.068 83.4007 13.244C83.1207 13.42 82.9047 13.668 82.7527 13.988C82.6007 14.304 82.5247 14.674 82.5247 15.098L82.3387 13.604H82.6207C82.6967 13.208 82.8287 12.868 83.0167 12.584C83.2047 12.296 83.4487 12.074 83.7487 11.918C84.0487 11.762 84.4087 11.684 84.8287 11.684C85.2767 11.684 85.6827 11.77 86.0467 11.942C86.4147 12.11 86.7307 12.348 86.9947 12.656C87.2587 12.964 87.4627 13.324 87.6067 13.736C87.7507 14.148 87.8227 14.594 87.8227 15.074C87.8227 15.75 87.6947 16.344 87.4387 16.856C87.1867 17.364 86.8267 17.76 86.3587 18.044C85.8947 18.324 85.3487 18.464 84.7207 18.464ZM92.9032 18.458C92.1992 18.458 91.5912 18.316 91.0792 18.032C90.5712 17.744 90.1792 17.348 89.9032 16.844C89.6272 16.34 89.4892 15.758 89.4892 15.098C89.4892 14.43 89.6272 13.84 89.9032 13.328C90.1832 12.816 90.5732 12.416 91.0732 12.128C91.5772 11.836 92.1672 11.69 92.8432 11.69C93.5272 11.69 94.1152 11.834 94.6072 12.122C95.0992 12.41 95.4772 12.81 95.7412 13.322C96.0092 13.834 96.1432 14.426 96.1432 15.098C96.1432 15.21 96.1412 15.302 96.1372 15.374C96.1372 15.442 96.1332 15.5 96.1252 15.548H94.6792C94.6872 15.472 94.6932 15.392 94.6972 15.308C94.7012 15.224 94.7032 15.126 94.7032 15.014C94.7032 14.614 94.6312 14.26 94.4872 13.952C94.3432 13.644 94.1332 13.402 93.8572 13.226C93.5812 13.05 93.2472 12.962 92.8552 12.962C92.4832 12.962 92.1552 13.052 91.8712 13.232C91.5912 13.408 91.3732 13.658 91.2172 13.982C91.0612 14.302 90.9832 14.674 90.9832 15.098C90.9832 15.498 91.0592 15.852 91.2112 16.16C91.3672 16.468 91.5872 16.71 91.8712 16.886C92.1592 17.058 92.5032 17.144 92.9032 17.144C93.3152 17.144 93.6692 17.05 93.9652 16.862C94.2612 16.67 94.4792 16.414 94.6192 16.094L96.0232 16.556C95.7832 17.144 95.3892 17.608 94.8412 17.948C94.2932 18.288 93.6472 18.458 92.9032 18.458ZM90.4192 15.548V14.522H95.4532L95.7352 15.548H90.4192ZM100.294 17.102H101.368V18.332H97.6961V17.102H98.8301V13.046H97.6961V11.816H100.294V17.102ZM102.592 13.31C102.512 13.29 102.428 13.274 102.34 13.262C102.252 13.25 102.162 13.244 102.07 13.244C101.522 13.244 101.088 13.424 100.768 13.784C100.452 14.14 100.294 14.64 100.294 15.284L100.012 13.766H100.348C100.4 13.31 100.506 12.932 100.666 12.632C100.826 12.328 101.036 12.1 101.296 11.948C101.56 11.796 101.868 11.72 102.22 11.72C102.284 11.72 102.346 11.724 102.406 11.732C102.466 11.736 102.528 11.744 102.592 11.756V13.31Z" fill="white"/>
<path d="M20.3977 2.11328H13.1941H5.99047C3.97346 2.11328 2.38867 3.66135 2.38867 5.63162V16.1866V19.705C2.38867 21.6752 3.97346 23.2233 5.99047 23.2233H13.1941H20.3977C22.4147 23.2233 23.9995 21.6752 23.9995 19.705V5.63162C23.9995 3.66135 22.4147 2.11328 20.3977 2.11328Z" fill="#FFC10A"/>
<path d="M18.2369 10.559C19.8283 10.559 21.1183 9.29886 21.1183 7.74436C21.1183 6.18986 19.8283 4.92969 18.2369 4.92969C16.6455 4.92969 15.3555 6.18986 15.3555 7.74436C15.3555 9.29886 16.6455 10.559 18.2369 10.559Z" fill="#0E9688"/>
<path d="M23.9995 19.6353C23.9995 19.4242 23.9274 19.2834 23.7833 19.1427L22.5587 18.0872L13.1941 9.85428V9.92464L9.37616 6.54704C9.23209 6.4063 9.01598 6.33594 8.79987 6.33594C8.58376 6.33594 8.36765 6.47667 8.29562 6.68777L3.82939 13.7244L2.53274 15.8354C2.38867 15.9058 2.38867 16.0466 2.38867 16.1873V19.7056C2.38867 21.6759 3.97346 23.224 5.99047 23.224H13.1941H20.3977C22.4147 23.224 23.9995 21.6759 23.9995 19.6353Z" fill="#0E9688"/>
</svg>
