<?xml version="1.0" ?><svg viewBox="0 0 32 32" xmlns="http://www.w3.org/2000/svg"><defs><style>.cls-1{fill:#030303;}.cls-2{fill:none;}</style></defs><title/><g data-name="Layer 2" id="Layer_2"><g data-name="Layer 4" id="Layer_4"><path class="cls-1" d="M17,29H15a3,3,0,0,1-3-3v-.13a1.18,1.18,0,0,0-.67-1l-.65-.38a1.17,1.17,0,0,0-1.22-.06l-.12.06a3,3,0,0,1-4.1-1.09l-1-1.74a3,3,0,0,1,1.1-4.09A1.36,1.36,0,0,0,6,16.33v-.66a1.3,1.3,0,0,0-.66-1.2,3,3,0,0,1-1.1-4.1l1-1.74a3,3,0,0,1,4.1-1.09l.12.06a1.17,1.17,0,0,0,1.22-.06l.65-.38a1.18,1.18,0,0,0,.67-1V6a3,3,0,0,1,3-3h2a3,3,0,0,1,3,3v.13a1.18,1.18,0,0,0,.67,1l.65.38a1.17,1.17,0,0,0,1.22.06l.12-.06a3,3,0,0,1,4.1,1.09l1,1.74a3,3,0,0,1-1.1,4.09l-.11.07a1.08,1.08,0,0,0-.56,1c0,.16,0,.32,0,.48s0,.32,0,.47a1.08,1.08,0,0,0,.56,1l.11.07a3,3,0,0,1,1.1,4.09l-1,1.74a3,3,0,0,1-4.1,1.09l-.12-.06a1.17,1.17,0,0,0-1.22.06l-.65.38a1.18,1.18,0,0,0-.67,1V26A3,3,0,0,1,17,29Zm-7-6.74a3.32,3.32,0,0,1,1.75.51l.51.3A3.17,3.17,0,0,1,14,25.87V26a1,1,0,0,0,1,1h2a1,1,0,0,0,1-1v-.13a3.17,3.17,0,0,1,1.74-2.8l.51-.3a3.17,3.17,0,0,1,3.29-.1l.12.06A1,1,0,0,0,25,22.37l1-1.74a1,1,0,0,0-.37-1.36h0l-.11-.07A3.08,3.08,0,0,1,24,16.37c0-.12,0-.24,0-.37s0-.25,0-.38a3.07,3.07,0,0,1,1.56-2.82l.11-.07A1,1,0,0,0,26,11.37L25,9.63a1,1,0,0,0-1.37-.36l-.11.06a3.19,3.19,0,0,1-3.3-.1l-.51-.3A3.17,3.17,0,0,1,18,6.13V6a1,1,0,0,0-1-1H15a1,1,0,0,0-1,1v.13a3.17,3.17,0,0,1-1.74,2.8l-.51.3a3.17,3.17,0,0,1-3.29.1l-.12-.06A1,1,0,0,0,7,9.63L6,11.37a1,1,0,0,0,.37,1.36,3.32,3.32,0,0,1,1.66,3v.53a3.31,3.31,0,0,1-1.66,3A1,1,0,0,0,6,20.63l1,1.74a1,1,0,0,0,1.37.36l.11-.06A3,3,0,0,1,10,22.26Z"/><path class="cls-1" d="M16,20a4,4,0,1,1,4-4A4,4,0,0,1,16,20Zm0-6a2,2,0,1,0,2,2A2,2,0,0,0,16,14Z"/><rect class="cls-2" height="32" width="32"/></g></g></svg>